<svg version="1.1" id="Layer_1" xmlns="http://www.w3.org/2000/svg" xmlns:xlink="http://www.w3.org/1999/xlink" x="0px" y="0px"
	 width="100%" viewBox="0 0 272 240" enable-background="new 0 0 272 240" xml:space="preserve">
<path fill="#000000" opacity="1.000000" stroke="none" 
	d="
M180.297379,114.956299 
	C181.620316,122.587181 178.660278,127.018532 172.455429,130.804764 
	C161.805099,137.303650 151.750671,144.777466 141.420242,151.804001 
	C139.961838,152.795990 138.523804,154.452499 136.509247,153.383621 
	C134.573334,152.356445 134.872772,150.287643 134.798782,148.477737 
	C134.757965,147.479614 134.785416,146.478714 134.781128,145.479065 
	C134.720947,131.447266 136.174377,133.590698 122.951088,133.374695 
	C118.786880,133.306671 114.583458,133.008728 110.464577,133.444870 
	C105.001038,134.023392 101.532402,132.059402 98.538208,127.423607 
	C91.401398,116.373947 83.726234,105.673088 76.337868,94.784294 
	C73.179443,90.129494 74.138084,88.250877 79.712112,88.014175 
	C82.872543,87.879959 86.047684,87.832169 89.205917,87.974174 
	C92.912300,88.140823 94.168884,86.423500 94.159012,82.870514 
	C94.138672,75.546158 94.559509,68.218719 94.457428,60.897312 
	C94.412460,57.672703 95.538689,55.562244 98.112762,53.810925 
	C109.816116,45.848305 121.459396,37.797436 133.145065,29.808712 
	C134.769241,28.698366 136.471405,27.150143 138.591919,28.145710 
	C140.870239,29.215378 140.236237,31.568499 140.264862,33.493748 
	C140.476685,47.744312 140.556839,48.770573 154.715057,47.460049 
	C167.777069,46.250992 175.867050,50.658134 181.955612,61.989185 
	C186.658539,70.741539 193.084259,78.566917 198.722702,86.819000 
	C199.740387,88.308403 201.192062,89.827164 200.226059,91.789955 
	C199.204803,93.864990 197.056747,93.230042 195.302551,93.272797 
	C191.972290,93.353973 188.632751,93.422264 185.308136,93.263664 
	C181.878052,93.100037 180.402100,94.678391 180.392151,97.970940 
	C180.375549,103.468803 180.330353,108.966583 180.297379,114.956299 
M104.966225,126.797874 
	C105.665131,127.786705 106.525162,128.605133 107.798515,128.609894 
	C115.791435,128.639832 123.784630,128.657150 131.777420,128.617691 
	C133.861145,128.607391 134.490646,127.241440 134.715622,125.326492 
	C135.075607,122.262276 133.397797,120.827812 130.952972,119.615028 
	C120.808762,114.582886 110.728783,109.421143 100.580765,104.396774 
	C97.188782,102.717384 94.033562,101.092484 94.221962,96.499207 
	C94.284904,94.964661 93.522125,93.412842 91.620392,93.422882 
	C88.755768,93.437988 85.776192,92.641228 82.484612,94.256775 
	C89.981812,105.128532 97.246750,115.663490 104.966225,126.797874 
M159.089905,69.311935 
	C164.889709,72.226952 170.663681,75.195152 176.501602,78.031754 
	C178.960205,79.226379 180.718201,80.752472 180.378387,83.727196 
	C179.904984,87.871384 182.077194,89.080864 185.743195,88.664658 
	C187.810287,88.429985 190.031647,89.292732 191.945496,87.948334 
	C191.917435,87.492523 192.014450,87.096352 191.861389,86.867302 
	C186.777313,79.260040 181.826630,71.557060 176.530563,64.099495 
	C166.931213,50.582317 171.957672,53.432106 155.924591,53.017010 
	C152.597137,52.930862 149.261169,52.895458 145.937607,53.036636 
	C143.790955,53.127823 141.010971,52.195473 140.382599,55.672813 
	C139.805695,58.865322 141.400558,60.535835 144.142471,61.814617 
	C148.966812,64.064613 153.671631,66.570885 159.089905,69.311935 
M164.285263,101.729156 
	C159.643723,110.946442 154.978027,120.151695 150.377090,129.389206 
	C149.180695,131.791245 147.719193,133.625488 144.711823,133.370071 
	C141.116943,133.064713 139.969528,135.003052 140.244980,138.251907 
	C140.434845,140.491302 139.761734,142.836258 141.082947,145.642273 
	C152.065475,138.140350 162.740417,130.863022 173.392288,123.552078 
	C174.575195,122.740189 174.939499,121.441864 174.941406,120.037651 
	C174.951813,112.379494 174.991013,104.721245 174.962555,97.063248 
	C174.956985,95.564774 174.843597,93.896461 172.937622,93.516289 
	C171.098053,93.149368 169.162384,93.107086 168.004654,94.955795 
	C166.771072,96.925621 165.740021,99.022285 164.285263,101.729156 
M101.049919,87.233665 
	C104.830795,89.016747 106.860413,87.203949 108.511971,83.905594 
	C113.726768,73.491051 119.151230,63.181274 124.340546,52.754307 
	C125.882393,49.656254 127.704147,47.462013 131.491379,47.695019 
	C133.104309,47.794247 134.603302,47.330666 134.703247,45.376953 
	C134.858307,42.346153 135.287323,39.261574 134.044952,35.750629 
	C123.178169,43.199211 112.756615,50.332642 102.349739,57.487423 
	C100.900696,58.483643 100.033722,59.880573 100.044685,61.691479 
	C100.094955,69.994537 99.385223,78.312515 101.049919,87.233665 
M109.443184,102.938972 
	C117.497108,106.937447 125.551033,110.935928 134.545258,115.401222 
	C134.545258,108.114449 134.585251,102.197548 134.525604,96.281647 
	C134.501724,93.912071 132.939056,93.309639 130.823029,93.317970 
	C121.869019,93.353256 112.914757,93.317612 103.960609,93.327469 
	C102.279251,93.329315 100.524139,93.300980 100.177933,95.580826 
	C99.880402,97.540192 100.923897,98.699074 102.540260,99.508957 
	C104.614975,100.548477 106.690918,101.585548 109.443184,102.938972 
M167.775589,88.521164 
	C170.183380,88.168732 173.602249,90.237190 174.675873,86.626648 
	C175.810669,82.810425 172.070480,82.121101 169.719635,80.885460 
	C161.475739,76.552322 153.170105,72.335686 144.856155,68.137733 
	C143.619263,67.513199 142.379135,66.291801 140.298187,67.645355 
	C140.298187,72.503700 140.473892,77.644333 140.241165,82.766411 
	C140.063110,86.685463 141.602081,88.014160 145.461853,88.020416 
	C152.604187,88.031990 159.765060,87.472610 167.775589,88.521164 
M140.287521,112.494751 
	C140.281296,116.147545 140.196899,119.802589 140.301605,123.452202 
	C140.354599,125.299843 139.520096,127.839584 142.332855,128.364868 
	C144.605927,128.789383 145.345459,126.678902 146.162582,125.082275 
	C150.926727,115.773651 155.664703,106.451546 160.371964,97.114052 
	C160.868439,96.129211 161.618332,95.075638 160.412308,93.323944 
	C155.510147,93.323944 150.228897,93.440811 144.955917,93.282646 
	C141.470108,93.178101 140.199097,94.719536 140.282730,98.050179 
	C140.395218,102.530128 140.295975,107.015396 140.287521,112.494751 
M134.925873,57.864422 
	C134.708740,56.143665 135.384491,53.908710 132.883179,53.356724 
	C130.238968,52.773193 129.516312,55.040844 128.625946,56.749664 
	C125.243988,63.240410 121.861900,69.733978 118.654930,76.311852 
	C116.942879,79.823456 114.587463,83.097427 113.785736,87.361908 
	C118.841858,88.503906 123.661240,87.617996 128.402161,87.993553 
	C133.101517,88.365829 134.958572,86.599487 134.792984,81.740952 
	C134.532532,74.097786 134.842346,66.435196 134.925873,57.864422 
z"/>
<path fill="#000000" opacity="1.000000" stroke="none" 
	d="
M61.667519,211.004257 
	C61.666195,207.590637 61.666195,204.649918 61.666195,201.709183 
	C61.397568,201.653122 61.128941,201.597061 60.860313,201.541016 
	C59.461697,204.454269 58.089088,207.380386 56.657192,210.277176 
	C55.209126,213.206665 54.479610,216.548691 51.400639,219.516098 
	C47.040527,213.918823 45.654686,207.128906 41.415974,201.524078 
	C41.415974,207.148300 41.415974,212.772537 41.415974,218.419632 
	C38.661148,218.333542 38.917690,216.721634 38.904022,215.515640 
	C38.834202,209.353348 38.806381,203.189392 38.880405,197.027405 
	C38.903656,195.091888 38.702129,192.732712 41.468502,192.344025 
	C44.042183,191.982407 44.769268,194.026001 45.606995,195.890335 
	C47.889286,200.969513 50.224056,206.025116 53.026779,212.159866 
	C55.762589,206.070267 57.948505,201.100296 60.231541,196.175339 
	C61.118607,194.261765 61.810459,191.839066 64.702560,192.343353 
	C67.773911,192.878860 67.195923,195.430145 67.212326,197.516617 
	C67.255531,203.012878 67.287170,208.511002 67.183655,214.005753 
	C67.142570,216.186340 67.809692,219.263916 64.145554,219.051804 
	C60.844341,218.860718 61.971001,215.932068 61.697350,213.973160 
	C61.583164,213.155777 61.672203,212.310013 61.667519,211.004257 
z"/>
<path fill="#000000" opacity="1.000000" stroke="none" 
	d="
M107.847748,200.865204 
	C108.499954,205.216461 109.081932,209.210403 107.170570,212.957870 
	C104.231171,218.720901 99.031502,219.536011 93.223579,219.422073 
	C84.709755,219.255127 84.704498,219.394958 84.698944,211.112885 
	C84.695602,206.136353 84.696152,201.159790 84.706398,196.183273 
	C84.709908,194.476227 84.859543,192.957748 86.886734,192.219193 
	C94.529434,189.434845 103.936989,193.117416 107.847748,200.865204 
M90.068748,215.749817 
	C95.442215,218.077652 100.712944,216.248077 102.386635,211.474030 
	C105.025719,203.946350 101.768639,196.531189 95.174080,194.791779 
	C91.755096,193.889969 90.022926,194.947449 89.982185,198.554428 
	C89.920128,204.048019 89.837517,209.541412 90.068748,215.749817 
z"/>
<path fill="#000000" opacity="1.000000" stroke="none" 
	d="
M200.920914,198.957535 
	C200.957001,197.356628 200.929520,196.189102 201.036804,195.034088 
	C201.194305,193.337997 202.019867,192.199448 203.886368,192.266663 
	C205.755692,192.333969 206.484070,193.511093 206.500565,195.233368 
	C206.564148,201.870911 206.686005,208.509323 206.620697,215.145782 
	C206.601288,217.117935 206.321625,219.424561 203.409317,219.146912 
	C200.846191,218.902557 201.083649,216.765182 200.955582,214.967896 
	C200.908417,214.306061 200.934189,213.639175 200.922180,212.974655 
	C200.802200,206.339417 200.790314,206.591980 194.293625,206.293427 
	C189.960190,206.094299 188.891113,207.872070 188.886490,211.819916 
	C188.883453,214.428513 190.278061,219.001343 185.943298,218.854141 
	C181.956497,218.718750 183.853806,214.371124 183.721054,211.907898 
	C183.435410,206.606949 183.637695,201.278687 183.675964,195.961884 
	C183.688004,194.289169 183.609787,192.416046 186.036499,192.377579 
	C188.328064,192.341278 188.542007,194.134933 188.784164,195.813400 
	C188.855011,196.304382 188.841476,196.807785 188.862122,197.305679 
	C189.149643,204.241638 189.148026,204.098389 196.182022,204.027893 
	C199.543182,203.994186 201.225113,202.874771 200.920914,198.957535 
z"/>
<path fill="#000000" opacity="1.000000" stroke="none" 
	d="
M121.480797,194.359802 
	C125.310646,199.399246 128.910568,204.146988 132.510498,208.894745 
	C132.884613,208.812759 133.258713,208.730774 133.632812,208.648788 
	C133.632812,203.477493 133.632812,198.306213 133.632812,192.368073 
	C136.597275,195.465012 137.105942,213.619125 134.668182,219.618469 
	C128.954636,212.485382 123.562416,205.753448 118.170197,199.021515 
	C117.771271,199.117462 117.372345,199.213394 116.973419,199.309341 
	C116.973419,205.481155 116.973419,211.652969 116.973419,217.964981 
	C114.106445,217.471603 114.710167,215.826782 114.695992,214.694962 
	C114.620842,208.697830 114.630821,202.698959 114.683022,196.701340 
	C114.696899,195.107254 114.297623,193.210114 116.427208,192.476852 
	C118.409187,191.794418 120.017159,192.402954 121.480797,194.359802 
z"/>
<path fill="#000000" opacity="1.000000" stroke="none" 
	d="
M159.193512,205.085693 
	C159.125732,210.201462 159.594803,214.646347 164.960617,216.414780 
	C169.186600,217.807571 172.112457,215.905823 172.643280,211.460388 
	C172.875671,209.514313 172.461105,206.991791 175.554520,207.457184 
	C178.180496,207.852264 177.277023,210.257629 177.410492,211.936768 
	C177.550156,213.693726 176.764374,215.126221 175.532181,216.372757 
	C171.459564,220.492691 162.261703,220.499802 157.640198,216.356125 
	C152.640656,211.873505 151.960388,202.910492 156.185989,197.195435 
	C160.267029,191.675888 167.591507,190.175705 172.979492,193.765579 
	C174.073151,194.494217 175.309326,195.142426 175.060776,197.664871 
	C170.687729,196.159470 166.275818,192.118576 161.811935,196.873138 
	C159.702301,199.120148 159.135544,201.749649 159.193512,205.085693 
z"/>
<path fill="#000000" opacity="1.000000" stroke="none" 
	d="
M214.492676,194.315796 
	C211.431976,192.065979 213.978714,192.074982 215.183533,192.046631 
	C220.330917,191.925476 225.484634,191.898758 230.631790,192.019058 
	C233.005630,192.074554 235.574356,191.231354 238.158356,193.279724 
	C236.341629,194.955063 234.289932,194.397690 232.541824,194.314453 
	C229.016968,194.146652 227.815430,195.762070 227.886948,199.086777 
	C227.993973,204.061707 227.962097,209.043839 227.817825,214.017929 
	C227.759735,216.020462 228.398483,218.918640 225.263336,219.070786 
	C221.781570,219.239792 222.790695,216.193100 222.715744,214.277069 
	C222.559982,210.295654 222.665649,206.304062 222.661591,202.316650 
	C222.653595,194.442383 222.652954,194.442383 214.492676,194.315796 
z"/>
<path fill="#000000" opacity="1.000000" stroke="none" 
	d="
M142.751999,196.362061 
	C142.794357,193.937302 143.112335,192.116058 145.701538,192.349457 
	C147.912048,192.548721 148.118439,194.286438 148.128357,196.011490 
	C148.165451,202.460037 148.206314,208.908936 148.170929,215.357285 
	C148.160706,217.219818 147.963715,219.209946 145.359192,219.134720 
	C142.716599,219.058365 142.806671,216.980865 142.791382,215.169495 
	C142.739838,209.051651 142.755493,202.933243 142.751999,196.362061 
z"/>
<path fill="#000000" opacity="1.000000" stroke="none" 
	d="
M73.685013,199.157425 
	C73.692787,197.683563 73.705353,196.686157 73.708649,195.688705 
	C73.714676,193.861069 74.072815,192.266586 76.397072,192.406769 
	C78.470863,192.531860 78.607178,194.178436 78.598457,195.687134 
	C78.560020,202.335602 78.465714,208.983994 78.346474,215.631592 
	C78.319946,217.110245 78.380257,218.866760 76.289848,219.000229 
	C73.888420,219.153564 73.750481,217.301819 73.734322,215.593719 
	C73.683968,210.274078 73.697113,204.953857 73.685013,199.157425 
z"/>
</svg>